<?xml version="1.0" standalone="no"?>
<!DOCTYPE svg PUBLIC "-//W3C//DTD SVG 20010904//EN"
 "http://www.w3.org/TR/2001/REC-SVG-20010904/DTD/svg10.dtd">
<svg version="1.0" xmlns="http://www.w3.org/2000/svg"
 width="400.000000pt" height="400.000000pt" viewBox="0 0 400.000000 400.000000"
 preserveAspectRatio="xMidYMid meet">
<metadata>
Created by potrace 1.11, written by Peter Selinger 2001-2013
</metadata>
<g transform="translate(0.000000,400.000000) scale(0.100000,-0.100000)"
fill="#000000" stroke="none">
<path d="M1704 2472 c-6 -4 -10 -69 -9 -155 0 -81 -2 -147 -5 -147 -3 0 -16
12 -29 26 -45 47 -80 59 -171 59 -68 0 -93 -5 -126 -22 -91 -48 -140 -142
-137 -258 4 -150 115 -257 266 -256 67 0 159 37 177 72 13 24 32 25 29 2 -1
-10 -1 -30 0 -45 1 -25 5 -28 36 -28 l35 0 0 378 0 379 -28 1 c-16 0 -33 -2
-38 -6z m-113 -298 c118 -60 140 -246 39 -338 -59 -53 -125 -67 -198 -42 -181
64 -175 342 8 394 41 12 114 5 151 -14z"/>
<path d="M265 2426 c-110 -35 -180 -95 -228 -195 -55 -116 -40 -267 37 -372
41 -56 113 -105 185 -126 127 -36 289 -5 359 69 l22 24 -23 22 -23 22 -41 -30
c-141 -104 -363 -51 -443 106 -21 41 -25 63 -25 134 0 76 3 91 31 140 17 30
50 70 73 87 106 82 287 82 379 0 l22 -20 25 23 c29 27 23 38 -36 76 -80 50
-223 69 -314 40z"/>
<path d="M2375 2431 c-3 -2 -5 -163 -5 -358 l0 -353 238 0 239 0 0 35 0 35
-199 0 c-151 0 -198 3 -199 13 0 6 0 150 0 320 0 169 -3 307 -7 308 -33 4 -64
4 -67 0z"/>
<path d="M828 2251 c-122 -40 -193 -144 -187 -275 5 -108 52 -181 146 -228 98
-48 211 -39 295 25 151 116 130 372 -38 456 -52 26 -167 38 -216 22z m179 -80
c155 -79 129 -333 -40 -380 -142 -40 -273 78 -252 229 20 143 164 217 292 151z"/>
<path d="M1976 2246 c-100 -37 -158 -124 -164 -242 -7 -122 46 -210 153 -260
100 -46 238 -29 313 39 l22 21 -21 22 -21 22 -50 -31 c-45 -28 -60 -32 -117
-31 -111 1 -180 53 -205 156 l-6 26 203 1 c111 0 212 0 225 0 18 1 22 7 22 36
0 19 -7 56 -16 82 -37 107 -112 164 -228 170 -46 2 -85 -2 -110 -11z m147 -57
c66 -18 114 -71 133 -144 l6 -25 -191 0 -191 0 6 28 c16 67 58 115 121 137 47
17 67 18 116 4z"/>
<path d="M3060 2251 c-49 -16 -91 -43 -126 -79 -18 -20 -34 -39 -34 -42 0 -3
-4 -11 -9 -18 -7 -11 -16 -10 -50 7 -22 12 -41 18 -41 13 0 -5 11 -45 25 -89
l26 -81 47 15 c26 8 64 20 85 25 20 6 37 14 37 18 0 4 -18 15 -40 26 -22 10
-40 21 -40 24 0 14 41 63 71 85 139 104 334 7 333 -166 -2 -203 -262 -287
-378 -122 -26 38 -34 43 -56 38 -34 -9 -34 -9 -14 -47 66 -129 230 -178 364
-109 196 100 196 381 0 481 -48 25 -155 36 -200 21z"/>
<path d="M3634 2251 c-110 -28 -183 -128 -184 -248 0 -155 107 -258 270 -256
84 0 124 15 178 67 l33 31 -5 -69 c-7 -88 -30 -135 -81 -164 -35 -20 -51 -22
-126 -20 -73 3 -95 8 -146 34 l-60 31 -17 -28 c-16 -27 -16 -28 11 -47 110
-76 321 -81 407 -10 20 16 47 49 59 71 21 40 22 55 25 327 l3 286 -35 1 c-36
1 -36 1 -36 -43 0 -43 -12 -58 -23 -30 -3 8 -27 27 -52 42 -37 21 -62 28 -119
30 -39 2 -85 -1 -102 -5z m194 -80 c107 -54 133 -198 55 -292 -89 -105 -277
-86 -340 35 -22 42 -21 133 1 179 46 93 181 130 284 78z"/>
<path d="M3095 2044 c1 -40 3 -75 6 -77 2 -2 32 -20 65 -40 45 -26 65 -32 73
-24 20 20 12 32 -44 61 l-54 30 -3 60 c-3 53 -6 61 -23 62 -19 1 -21 -5 -20
-72z"/>
</g>
</svg>
